HIERARCHY
ROOT Hips
{
	OFFSET 0.000000 100.481300 0.000000
	CHANNELS 6 Xposition Yposition Zposition Xrotation Yrotation Zrotation
	JOINT Spine
	{
		OFFSET -0.279200 12.230698 -2.892100
		CHANNELS 3 Xrotation Yrotation Zrotation
		JOINT Spine1
		{
			OFFSET -0.325700 14.269203 -3.374200
			CHANNELS 3 Xrotation Yrotation Zrotation
			JOINT Spine2
			{
				OFFSET -0.372300 16.307602 -0.352600
				CHANNELS 3 Xrotation Yrotation Zrotation
				JOINT Neck
				{
					OFFSET -0.418800 17.814194 8.416900
					CHANNELS 3 Xrotation Yrotation Zrotation
					JOINT Head
					{
						OFFSET 0.000000 7.031097 3.806800
						CHANNELS 3 Xrotation Yrotation Zrotation
						JOINT HeadTop_End
						{
							OFFSET 0.000000 24.646606 12.978600
							CHANNELS 3 Xrotation Yrotation Zrotation
							End Site
							{
								OFFSET 0.000000 27.854965 0.000000
							}
						}
					}
				}
				JOINT LeftShoulder
				{
					OFFSET 16.952999 14.495407 -7.737500
					CHANNELS 3 Xrotation Yrotation Zrotation
					JOINT LeftArm
					{
						OFFSET 9.308998 -2.777710 0.208600
						CHANNELS 3 Xrotation Yrotation Zrotation
						JOINT LeftForeArm
						{
							OFFSET 29.972298 0.000000 0.000000
							CHANNELS 3 Xrotation Yrotation Zrotation
							JOINT LeftHand
							{
								OFFSET 26.026505 0.000000 0.000000
								CHANNELS 3 Xrotation Yrotation Zrotation
								JOINT LeftHandThumb1
								{
									OFFSET 12.240501 -7.147949 9.207150
									CHANNELS 3 Xrotation Yrotation Zrotation
									JOINT LeftHandThumb2
									{
										OFFSET 4.138618 -2.389435 2.389433
										CHANNELS 3 Xrotation Yrotation Zrotation
										JOINT LeftHandThumb3
										{
											OFFSET 2.726913 -1.574387 1.574386
											CHANNELS 3 Xrotation Yrotation Zrotation
											JOINT LeftHandThumb4
											{
												OFFSET 3.941010 -2.275345 2.275342
												CHANNELS 3 Xrotation Yrotation Zrotation
												End Site
												{
													OFFSET -0.005798 5.087799 0.009903
												}
											}
										}
									}
								}
								JOINT LeftHandIndex1
								{
									OFFSET 24.424698 -1.985611 5.953459
									CHANNELS 3 Xrotation Yrotation Zrotation
									JOINT LeftHandIndex2
									{
										OFFSET 6.426697 0.000000 0.000000
										CHANNELS 3 Xrotation Yrotation Zrotation
										JOINT LeftHandIndex3
										{
											OFFSET 5.337898 0.000000 0.000000
											CHANNELS 3 Xrotation Yrotation Zrotation
											JOINT LeftHandIndex4
											{
												OFFSET 4.409401 0.000000 0.000000
												CHANNELS 3 Xrotation Yrotation Zrotation
												End Site
												{
													OFFSET 0.000000 4.409363 0.014373
												}
											}
										}
									}
								}
								JOINT LeftHandMiddle1
								{
									OFFSET 23.810104 0.000000 0.000000
									CHANNELS 3 Xrotation Yrotation Zrotation
									JOINT LeftHandMiddle2
									{
										OFFSET 7.176498 0.000000 0.000000
										CHANNELS 3 Xrotation Yrotation Zrotation
										JOINT LeftHandMiddle3
										{
											OFFSET 6.774902 0.000000 0.000000
											CHANNELS 3 Xrotation Yrotation Zrotation
											JOINT LeftHandMiddle4
											{
												OFFSET 5.403328 0.000000 0.000000
												CHANNELS 3 Xrotation Yrotation Zrotation
												End Site
												{
													OFFSET -0.027702 5.403244 0.017414
												}
											}
										}
									}
								}
								JOINT LeftHandRing1
								{
									OFFSET 22.908401 -0.839279 -6.020567
									CHANNELS 3 Xrotation Yrotation Zrotation
									JOINT LeftHandRing2
									{
										OFFSET 6.337502 0.000000 0.000000
										CHANNELS 3 Xrotation Yrotation Zrotation
										JOINT LeftHandRing3
										{
											OFFSET 5.779297 0.000000 0.000000
											CHANNELS 3 Xrotation Yrotation Zrotation
											JOINT LeftHandRing4
											{
												OFFSET 4.965698 0.000000 0.000000
												CHANNELS 3 Xrotation Yrotation Zrotation
												End Site
												{
													OFFSET 0.000000 4.965668 0.016186
												}
											}
										}
									}
								}
								JOINT LeftHandPinky1
								{
									OFFSET 20.037003 -1.530319 -10.950146
									CHANNELS 3 Xrotation Yrotation Zrotation
									JOINT LeftHandPinky2
									{
										OFFSET 5.254700 0.000000 0.000000
										CHANNELS 3 Xrotation Yrotation Zrotation
										JOINT LeftHandPinky3
										{
											OFFSET 4.810204 0.000000 0.000000
											CHANNELS 3 Xrotation Yrotation Zrotation
											JOINT LeftHandPinky4
											{
												OFFSET 3.647202 0.000000 0.000000
												CHANNELS 3 Xrotation Yrotation Zrotation
												End Site
												{
													OFFSET 0.000000 3.647186 0.011889
												}
											}
										}
									}
								}
							}
						}
					}
				}
				JOINT RightShoulder
				{
					OFFSET -15.141001 14.495407 -7.737500
					CHANNELS 3 Xrotation Yrotation Zrotation
					JOINT RightArm
					{
						OFFSET -9.308998 -2.777710 0.208500
						CHANNELS 3 Xrotation Yrotation Zrotation
						JOINT RightForeArm
						{
							OFFSET -29.972300 0.000000 0.000000
							CHANNELS 3 Xrotation Yrotation Zrotation
							JOINT RightHand
							{
								OFFSET -26.026505 0.000000 0.000000
								CHANNELS 3 Xrotation Yrotation Zrotation
								JOINT RightHandThumb1
								{
									OFFSET -12.240601 -7.148026 9.207092
									CHANNELS 3 Xrotation Yrotation Zrotation
									JOINT RightHandThumb2
									{
										OFFSET -4.138618 -2.389435 2.389433
										CHANNELS 3 Xrotation Yrotation Zrotation
										JOINT RightHandThumb3
										{
											OFFSET -2.726974 -1.574417 1.574421
											CHANNELS 3 Xrotation Yrotation Zrotation
											JOINT RightHandThumb4
											{
												OFFSET -3.941010 -2.275345 2.275343
												CHANNELS 3 Xrotation Yrotation Zrotation
												End Site
												{
													OFFSET 0.005814 5.087799 0.009927
												}
											}
										}
									}
								}
								JOINT RightHandIndex1
								{
									OFFSET -24.424698 -1.985657 5.953444
									CHANNELS 3 Xrotation Yrotation Zrotation
									JOINT RightHandIndex2
									{
										OFFSET -6.426697 0.000000 0.000000
										CHANNELS 3 Xrotation Yrotation Zrotation
										JOINT RightHandIndex3
										{
											OFFSET -5.337898 0.000000 0.000000
											CHANNELS 3 Xrotation Yrotation Zrotation
											JOINT RightHandIndex4
											{
												OFFSET -4.409401 0.000000 0.000000
												CHANNELS 3 Xrotation Yrotation Zrotation
												End Site
												{
													OFFSET 0.000000 4.409363 0.014408
												}
											}
										}
									}
								}
								JOINT RightHandMiddle1
								{
									OFFSET -23.810097 0.000000 0.000000
									CHANNELS 3 Xrotation Yrotation Zrotation
									JOINT RightHandMiddle2
									{
										OFFSET -7.176498 0.000000 0.000000
										CHANNELS 3 Xrotation Yrotation Zrotation
										JOINT RightHandMiddle3
										{
											OFFSET -6.774902 0.000000 0.000000
											CHANNELS 3 Xrotation Yrotation Zrotation
											JOINT RightHandMiddle4
											{
												OFFSET -5.403328 0.000000 0.000000
												CHANNELS 3 Xrotation Yrotation Zrotation
												End Site
												{
													OFFSET 0.027702 5.403244 0.017457
												}
											}
										}
									}
								}
								JOINT RightHandRing1
								{
									OFFSET -22.908302 -0.839325 -6.020576
									CHANNELS 3 Xrotation Yrotation Zrotation
									JOINT RightHandRing2
									{
										OFFSET -6.337502 0.000000 0.000000
										CHANNELS 3 Xrotation Yrotation Zrotation
										JOINT RightHandRing3
										{
											OFFSET -5.779297 0.000000 0.000000
											CHANNELS 3 Xrotation Yrotation Zrotation
											JOINT RightHandRing4
											{
												OFFSET -4.965698 0.000000 0.000000
												CHANNELS 3 Xrotation Yrotation Zrotation
												End Site
												{
													OFFSET 0.000000 4.965668 0.016226
												}
											}
										}
									}
								}
								JOINT RightHandPinky1
								{
									OFFSET -20.037003 -1.530334 -10.950259
									CHANNELS 3 Xrotation Yrotation Zrotation
									JOINT RightHandPinky2
									{
										OFFSET -5.254700 0.000000 0.000000
										CHANNELS 3 Xrotation Yrotation Zrotation
										JOINT RightHandPinky3
										{
											OFFSET -4.810204 0.000000 0.000000
											CHANNELS 3 Xrotation Yrotation Zrotation
											JOINT RightHandPinky4
											{
												OFFSET -3.647202 0.000000 0.000000
												CHANNELS 3 Xrotation Yrotation Zrotation
												End Site
												{
													OFFSET 0.000000 3.647186 0.011917
												}
											}
										}
									}
								}
							}
						}
					}
				}
			}
		}
	}
	JOINT LeftUpLeg
	{
		OFFSET 15.427100 -6.655098 0.678600
		CHANNELS 3 Xrotation Yrotation Zrotation
		JOINT LeftLeg
		{
			OFFSET 4.081073 -39.591068 13.024000
			CHANNELS 3 Xrotation Yrotation Zrotation
			JOINT LeftFoot
			{
				OFFSET -4.081074 -37.707932 -15.979700
				CHANNELS 3 Xrotation Yrotation Zrotation
				JOINT LeftToeBase
				{
					OFFSET 5.346399 -15.068900 20.645000
					CHANNELS 3 Xrotation Yrotation Zrotation
					JOINT LeftToe_End
					{
						OFFSET 2.754700 0.931300 11.300900
						CHANNELS 3 Xrotation Yrotation Zrotation
						End Site
						{
							OFFSET 0.000000 11.669021 0.000000
						}
					}
				}
			}
		}
	}
	JOINT RightUpLeg
	{
		OFFSET -15.569500 -6.655098 0.678600
		CHANNELS 3 Xrotation Yrotation Zrotation
		JOINT RightLeg
		{
			OFFSET -4.081825 -39.591045 13.023800
			CHANNELS 3 Xrotation Yrotation Zrotation
			JOINT RightFoot
			{
				OFFSET 4.081824 -37.707954 -15.979600
				CHANNELS 3 Xrotation Yrotation Zrotation
				JOINT RightToeBase
				{
					OFFSET -5.346400 -15.068900 20.645000
					CHANNELS 3 Xrotation Yrotation Zrotation
					JOINT RightToe_End
					{
						OFFSET -2.754700 0.931300 11.300900
						CHANNELS 3 Xrotation Yrotation Zrotation
						End Site
						{
							OFFSET 0.000000 11.669021 0.000000
						}
					}
				}
			}
		}
	}
}
MOTION
Frames: 5
Frame Time: 0.033333
19.477985 84.409531 136.591446 -146.969688 75.866108 143.356764 21.464803 -5.241931 -4.397821 -1.519904 -0.724909 0.361707 -1.496611 -0.705361 0.407886 4.350353 -4.171364 3.448541 -10.903461 -22.369734 7.886072 -0.000000 -0.000001 0.000000 -0.685908 6.377916 5.109093 -1.549281 -33.877752 -71.880385 0.000003 -21.899677 -0.000007 -19.210916 -0.930751 10.082406 -6.127781 -4.258175 5.579658 15.984258 39.851251 -8.082304 3.075752 11.959461 0.434062 0.000001 0.000003 0.000000 -2.770126 -3.702308 -27.727085 0.321402 2.083061 -17.541343 0.000002 0.000000 0.000001 -0.000000 0.000002 0.000002 -0.146365 1.496400 -27.948478 0.660276 2.947060 -25.251561 0.000001 -0.000001 -0.000007 -0.000001 -0.000001 -0.000002 1.140012 3.956745 -27.905505 0.496745 2.572383 -21.856161 0.011277 0.394861 -3.273755 0.000000 0.000001 0.000002 -0.789147 0.701209 -31.557072 0.221798 -2.310064 -15.127170 0.000003 0.000013 -0.000014 0.000001 0.000001 -0.000003 -2.919665 -13.932101 -11.932461 -61.700207 6.217575 26.012140 -0.000196 100.059758 0.000206 -0.217736 8.770298 4.056099 -12.957514 -14.241038 1.439600 7.295168 -16.863998 0.047761 8.284915 -24.404382 -2.701610 -0.000000 -0.000000 0.000001 0.281351 -5.981567 81.363754 5.379809 -6.769745 76.923325 0.291500 -1.995919 16.616276 -0.000002 0.000003 0.000001 5.221979 -6.841154 85.825808 6.257366 -6.913974 84.279726 0.635257 -2.908363 24.637682 0.000002 0.000002 -0.000001 6.491022 -6.942360 91.447921 6.222458 -6.910414 83.989641 0.807079 -3.256496 27.832077 0.000001 0.000003 0.000004 8.645612 -7.001328 91.488663 6.162227 -6.903858 83.488749 1.266671 -4.006309 35.078714 -0.000001 0.000001 0.000000 -2.130917 10.800454 -7.756850 39.626084 4.171923 -2.327321 -28.656448 -5.077368 17.180870 -4.793904 -0.000022 0.000000 -0.000000 -0.000001 -0.000000 -11.884622 -0.117337 -3.860415 60.880413 -6.052497 -6.571626 -1.842067 0.499468 9.384801 -15.449939 -2.885045 11.180660 -0.000001 0.000000 -0.000000 
24.472832 87.075569 134.513519 -156.203776 72.726133 151.554029 20.684156 -6.564309 -2.547191 -1.210873 -0.948107 0.477860 -1.188920 -0.923094 0.528730 4.369138 -4.099151 3.962917 -11.099028 -21.611190 7.969828 -0.000000 0.000001 0.000000 -0.483241 4.479280 5.723896 -1.640465 -35.171957 -72.965627 0.000007 -26.213506 0.000009 -18.749129 -2.952602 9.433283 -6.177440 -4.467000 5.853355 15.989647 39.852784 -8.081382 3.191706 12.262012 0.361223 -0.000001 -0.000001 0.000001 -2.835222 -3.765318 -27.941206 0.323608 2.089992 -17.601623 0.000000 -0.000003 0.000000 0.000001 -0.000000 -0.000002 -0.138855 1.533873 -28.328954 0.666549 2.960278 -25.372978 -0.000004 0.000000 -0.000006 -0.000000 0.000001 -0.000001 1.169733 4.006692 -28.086165 0.498423 2.576579 -21.893702 0.011029 0.390272 -3.235748 -0.000002 0.000001 0.000001 -0.792763 0.709127 -31.611768 0.222911 -2.305892 -15.162856 0.000003 -0.000003 -0.000002 -0.000004 0.000002 -0.000001 -2.860013 -14.166340 -11.161605 -60.578341 6.403565 24.785602 -0.000674 97.206398 0.000686 -2.003562 7.647872 3.951252 -12.901115 -14.277782 1.532382 7.294927 -16.863396 0.047695 8.293126 -24.421125 -2.693109 0.000000 0.000001 -0.000005 0.312939 -6.020383 81.656756 5.369164 -6.767280 76.832969 0.291886 -1.997246 16.627691 -0.000001 0.000002 0.000000 5.209531 -6.841497 85.894369 6.253846 -6.913623 84.250438 0.636533 -2.911153 24.663127 0.000001 0.000003 -0.000001 6.497439 -6.943083 91.447477 6.219294 -6.910081 83.963249 0.808880 -3.259891 27.863815 -0.000001 -0.000003 -0.000001 8.587508 -6.985915 91.549950 6.159697 -6.903569 83.467719 1.265913 -4.005221 35.067789 0.000001 0.000001 0.000000 3.150463 11.259230 -7.617835 34.270198 -0.384944 -1.024304 -25.680632 -5.011223 17.357823 -5.381413 0.000017 -0.000001 -0.000000 -0.000000 -0.000000 -13.606479 -0.772581 -2.143057 52.544444 -7.819705 -6.077318 -3.561734 0.126575 9.631921 -10.014522 -1.388544 8.743328 0.000001 -0.000000 0.000000 
29.520084 89.973541 132.218109 -164.223976 69.304509 158.330520 19.082649 -7.819904 -0.506352 -0.696579 -1.158394 0.574782 -0.678775 -1.131739 0.622859 4.175507 -4.051302 4.639325 -11.624112 -20.535399 7.443914 0.000000 0.000000 0.000000 -0.339913 2.884691 6.998489 -2.025836 -36.905541 -74.974713 0.000001 -30.137356 -0.000004 -18.968742 -4.041918 8.322393 -6.092928 -4.302292 5.778248 15.953485 39.790654 -8.050807 3.054374 11.934606 0.432209 -0.000000 -0.000000 0.000000 -2.792855 -3.698713 -27.840638 0.326702 2.099680 -17.686022 -0.000000 -0.000000 -0.000000 -0.000002 -0.000000 -0.000002 -0.122769 1.549474 -28.252509 0.666385 2.959983 -25.370302 0.000003 0.000009 0.000003 0.000000 -0.000001 -0.000004 1.185683 4.030129 -27.895707 0.497462 2.574103 -21.871599 0.011019 0.390292 -3.235986 -0.000001 0.000000 -0.000002 -0.736259 0.780923 -31.408225 0.221336 -2.311723 -15.112885 0.000001 0.000003 -0.000002 -0.000002 0.000000 -0.000002 -2.784197 -15.176091 -9.194452 -60.473668 6.896634 23.565923 0.000409 97.493007 -0.000403 -3.050940 6.996596 3.477013 -13.040169 -14.236903 1.442252 7.294700 -16.862812 0.047656 8.306536 -24.450447 -2.673198 -0.000002 0.000001 -0.000004 0.080719 -5.985859 81.618110 5.355760 -6.764152 76.719144 0.291150 -1.994792 16.606683 0.000002 0.000001 -0.000004 5.137005 -6.836095 85.900455 6.253101 -6.913540 84.244236 0.637601 -2.913475 24.684119 -0.000001 0.000002 -0.000002 6.449092 -6.942689 91.392979 6.225025 -6.910689 84.010821 0.812117 -3.266015 27.920869 0.000001 -0.000002 -0.000001 8.478392 -6.995467 91.310477 6.162758 -6.903919 83.493223 1.270906 -4.012317 35.139271 0.000003 0.000001 -0.000001 7.174256 12.059303 -6.847607 29.131160 -5.300838 0.263769 -21.045327 -4.695260 17.343496 -7.412793 0.011424 -0.664561 0.000000 0.000002 -0.000000 -15.154627 -2.587059 -0.331359 42.212803 -6.243987 -5.611288 -3.180826 -0.142970 10.997601 -4.863577 -0.240153 3.370951 -0.000001 -0.000000 0.000000 
34.402832 92.736145 129.775833 -170.908900 65.626104 163.818098 16.919577 -8.850548 1.410481 0.015915 -1.325279 0.767721 0.030631 -1.297774 0.805124 3.646368 -4.042944 5.193030 -12.377647 -19.441886 6.457703 0.000000 -0.000000 -0.000000 -0.035633 0.669876 7.536051 -2.172130 -38.500267 -76.195541 0.000010 -33.292261 -0.000002 -19.761657 -4.203607 6.406946 -6.081697 -4.163237 5.402558 15.963773 39.796268 -8.050864 2.868877 11.477118 0.533508 -0.000000 0.000001 -0.000001 -2.660294 -3.503811 -27.499595 0.327482 2.102151 -17.707532 -0.000000 0.000003 -0.000004 0.000000 0.000001 0.000002 -0.100175 1.566190 -27.824678 0.660858 2.948278 -25.262703 -0.000004 0.000002 0.000005 0.000003 0.000003 0.000002 1.153693 3.968400 -27.568788 0.493600 2.564524 -21.785949 0.011350 0.396167 -3.284756 0.000001 0.000001 -0.000002 -0.661907 0.871054 -31.181313 0.219198 -2.319656 -15.044907 -0.000006 -0.000006 -0.000007 0.000001 0.000000 -0.000000 -3.004949 -17.607746 -7.649739 -61.514890 6.980924 23.703582 0.000052 100.409129 -0.000068 -2.757021 6.918256 3.547598 -13.400721 -14.031470 1.140921 7.294470 -16.862211 0.047604 8.318985 -24.478493 -2.649492 0.000000 -0.000002 -0.000001 -0.303803 -5.908959 81.404025 5.348923 -6.762549 76.661162 0.289659 -1.989761 16.563485 0.000002 -0.000003 -0.000001 5.035090 -6.827033 85.871720 6.254831 -6.913717 84.258545 0.638668 -2.915776 24.704888 0.000001 0.000000 0.000003 6.379045 -6.941570 91.370856 6.237673 -6.911997 84.116129 0.817269 -3.275708 28.010980 0.000001 -0.000004 -0.000001 8.267814 -7.011114 91.066250 6.166244 -6.904317 83.522114 1.277480 -4.021605 35.233036 0.000002 0.000003 0.000002 9.928892 12.578469 -5.601404 24.689459 -7.841642 1.426628 -15.726401 -5.893916 16.657149 -12.995039 0.000086 -0.000878 0.000000 -0.000002 -0.000000 -16.980682 -4.935140 1.396479 31.317179 -1.181229 -5.000023 -1.073322 -0.090991 12.189592 -0.672191 -0.000005 0.000000 -0.000001 -0.000000 0.000000 
38.925087 94.957153 127.329704 -175.852209 61.884485 167.949366 14.592088 -9.582855 2.744045 0.796384 -1.430578 1.115743 0.812466 -1.404187 1.136244 2.865141 -4.030033 5.302400 -13.025216 -18.542702 5.392915 0.000000 -0.000001 0.000000 0.448115 -2.484807 6.788630 -1.107954 -39.359334 -75.527460 0.000005 -36.305707 -0.000004 -20.024914 -3.743078 3.973015 -6.196265 -4.149671 4.761280 16.117964 40.018888 -8.151569 2.762588 11.210127 0.592691 0.000001 0.000001 -0.000001 -2.479583 -3.171355 -27.139757 0.323216 2.088738 -17.590847 -0.000002 0.000000 -0.000002 0.000000 -0.000001 -0.000002 -0.050712 1.664293 -27.171643 0.648763 2.922589 -25.026865 -0.000003 0.000003 -0.000004 -0.000002 0.000003 0.000001 1.136405 3.956893 -27.163801 0.486358 2.546359 -21.623711 0.011757 0.403073 -3.341898 -0.000000 -0.000001 -0.000001 -0.540837 1.042426 -30.960520 0.216440 -2.329979 -14.956432 -0.000010 -0.000002 -0.000002 -0.000006 0.000001 -0.000004 -3.559998 -21.486520 -6.910585 -63.557854 7.314977 25.469490 0.000188 104.973389 -0.000205 -2.322634 6.779692 3.738663 -13.761663 -13.734471 0.828669 7.294239 -16.861628 0.047546 8.328954 -24.501338 -2.630671 0.000000 0.000000 -0.000002 -0.533557 -5.864715 81.319098 5.346895 -6.762076 76.643957 0.289017 -1.987589 16.544832 -0.000001 -0.000003 -0.000000 4.965540 -6.820315 85.840615 6.252093 -6.913441 84.235828 0.638937 -2.916374 24.710214 0.000001 -0.000003 -0.000001 6.325130 -6.940673 91.356287 6.242721 -6.912504 84.158053 0.820315 -3.281408 28.064293 -0.000001 0.000000 -0.000002 8.051823 -7.009071 91.059501 6.163957 -6.904054 83.503106 1.274321 -4.017142 35.188073 0.000002 -0.000000 0.000001 12.150878 12.681866 -4.345895 20.728552 -8.119451 2.287514 -10.813271 -8.760063 16.078124 -17.583019 -0.005532 0.034076 0.000000 -0.000000 -0.000000 -19.110448 -6.732017 1.863818 21.674789 2.822883 -3.694458 1.088824 1.704363 13.711206 -0.915560 0.000016 -0.000001 0.000000 0.000001 0.000000 
